<!DOCTYPE svg PUBLIC "-//W3C//DTD SVG 20010904//EN" "http://www.w3.org/TR/2001/REC-SVG-20010904/DTD/svg10.dtd">
<svg version="1.0" xmlns="http://www.w3.org/2000/svg" width="145px" height="140px" viewBox="0 0 1450 1400" preserveAspectRatio="xMidYMid meet">
<g id="layer1" fill="#fdfeff" stroke="none">
 <path d="M884 975 c-7 -18 9 -40 58 -75 38 -28 40 -40 5 -40 -24 0 -75 -16 -134 -42 -24 -10 -46 -18 -49 -18 -3 0 -28 -16 -54 -35 -26 -19 -52 -35 -58 -35 -17 0 -252 -248 -252 -265 0 -5 -7 -16 -15 -25 -20 -23 -95 -170 -95 -188 0 -26 25 -5 40 34 17 44 67 120 99 148 11 11 21 24 21 31 0 18 151 156 184 168 9 4 16 11 16 17 0 5 4 10 10 10 5 0 25 11 45 24 20 14 57 32 83 41 26 9 55 21 64 26 23 12 93 30 141 36 l39 5 -35 -45 c-38 -50 -53 -95 -38 -110 7 -7 29 9 68 48 32 32 89 80 126 108 95 69 91 79 -48 117 -92 24 -137 43 -155 65 -16 19 -59 19 -66 0z"/>
 </g>

</svg>